<svg data-v-423bf9ae="" xmlns="http://www.w3.org/2000/svg" viewBox="0 0 345.0187453136716 60" class="font"><!----><!----><!----><g data-v-423bf9ae="" id="a7a4f6b3-db29-4822-9b98-c106c445caae" fill="black" transform="matrix(3.8390402793884277,0,0,3.8390402793884277,-3.644094467163086,-58.35041427612305)"><path d="M4.96 19.53L4.96 19.53Q5.54 19.53 6.33 19.69L6.33 19.69L6.33 19.69Q7.11 19.85 7.46 20.05L7.46 20.05L7.46 22.30L6.86 22.30L6.86 22.30Q6.31 21.60 5.61 21.20L5.61 21.20L5.61 21.20Q4.91 20.80 4.16 20.80L4.16 20.80L4.16 20.80Q3.54 20.80 3.23 21.36L3.23 21.36L3.23 21.36Q2.91 21.91 2.91 22.97L2.91 22.97L2.91 22.97Q2.91 24.26 3.46 25.12L3.46 25.12L3.46 25.12Q4.02 25.97 5.05 25.97L5.05 25.97L5.05 25.97Q5.87 25.97 7.39 24.88L7.39 24.88L7.81 25.47L5.68 27.15L5.68 27.15Q5.08 27.27 4.24 27.27L4.24 27.27L4.24 27.27Q3.30 27.27 2.56 26.79L2.56 26.79L2.56 26.79Q1.81 26.31 1.38 25.48L1.38 25.48L1.38 25.48Q0.95 24.65 0.95 23.65L0.95 23.65L0.95 23.65Q0.95 22.55 1.57 21.61L1.57 21.61L1.57 21.61Q2.20 20.66 3.14 20.10L3.14 20.10L3.14 20.10Q4.07 19.53 4.96 19.53L4.96 19.53ZM13.89 19.53L13.89 19.53Q14.84 19.53 15.59 20.01L15.59 20.01L15.59 20.01Q16.34 20.50 16.76 21.32L16.76 21.32L16.76 21.32Q17.18 22.15 17.18 23.16L17.18 23.16L17.18 23.16Q17.18 24.25 16.51 25.19L16.51 25.19L16.51 25.19Q15.85 26.14 14.84 26.71L14.84 26.71L14.84 26.71Q13.83 27.27 12.89 27.27L12.89 27.27L12.89 27.27Q11.96 27.27 11.21 26.79L11.21 26.79L11.21 26.79Q10.46 26.31 10.03 25.48L10.03 25.48L10.03 25.48Q9.60 24.65 9.60 23.65L9.60 23.65L9.60 23.65Q9.60 22.55 10.27 21.61L10.27 21.61L10.27 21.61Q10.93 20.66 11.94 20.10L11.94 20.10L11.94 20.10Q12.95 19.53 13.89 19.53L13.89 19.53ZM13.08 20.80L13.08 20.80Q11.56 20.80 11.56 22.97L11.56 22.97L11.56 22.97Q11.56 24.28 12.12 25.14L12.12 25.14L12.12 25.14Q12.67 26.01 13.71 26.01L13.71 26.01L13.71 26.01Q14.45 26.01 14.83 25.45L14.83 25.45L14.83 25.45Q15.20 24.89 15.20 23.81L15.20 23.81L15.20 23.81Q15.20 22.53 14.65 21.66L14.65 21.66L14.65 21.66Q14.10 20.80 13.08 20.80L13.08 20.80ZM26.17 21.20L26.17 21.20Q27.22 21.52 27.82 22.25L27.82 22.25L27.82 22.25Q28.43 22.99 28.43 23.93L28.43 23.93L28.43 23.93Q28.43 24.81 27.71 25.59L27.71 25.59L27.71 25.59Q26.99 26.36 25.92 26.82L25.92 26.82L25.92 26.82Q24.85 27.29 23.88 27.29L23.88 27.29L23.88 27.29Q23.18 27.29 22.51 27.22L22.51 27.22L22.51 27.22Q21.39 27.15 20.78 27.15L20.78 27.15L18.93 27.15L18.93 26.64L20.24 25.61L20.24 17.22L18.76 16.76L19.08 16.13L20.76 16.13L20.76 16.13Q22.04 16.13 23.27 16.04L23.27 16.04L23.27 16.04Q24.22 15.99 24.67 15.99L24.67 15.99L24.67 15.99Q25.62 15.99 26.35 16.35L26.35 16.35L26.35 16.35Q27.08 16.72 27.48 17.34L27.48 17.34L27.48 17.34Q27.87 17.96 27.87 18.73L27.87 18.73L27.87 18.73Q27.87 19.43 27.41 20.08L27.41 20.08L27.41 20.08Q26.94 20.72 26.17 21.18L26.17 21.18L26.17 21.20ZM25.82 19.42L25.82 19.42Q25.82 18.34 25.25 17.65L25.25 17.65L25.25 17.65Q24.68 16.97 23.58 16.97L23.58 16.97L23.58 16.97Q22.81 16.97 22.15 17.40L22.15 17.40L22.15 21.10L24.07 21.10L24.07 21.10Q24.89 21.10 25.35 20.66L25.35 20.66L25.35 20.66Q25.82 20.23 25.82 19.42L25.82 19.42ZM24.28 26.19L24.28 26.19Q25.24 26.19 25.81 25.70L25.81 25.70L25.81 25.70Q26.38 25.21 26.38 24.39L26.38 24.39L26.38 24.39Q26.38 23.32 25.76 22.67L25.76 22.67L25.76 22.67Q25.14 22.01 23.94 21.97L23.94 21.97L23.94 21.97Q23.84 21.98 23.67 21.98L23.67 21.98L22.15 21.98L22.15 25.83L22.15 25.83Q23.04 26.18 24.28 26.18L24.28 26.18L24.28 26.19ZM34.33 21.11L34.33 21.11Q34.03 21.11 33.71 21.27L33.71 21.27L33.71 21.27Q33.39 21.42 32.98 21.83L32.98 21.83L32.98 25.93L34.97 26.52L34.66 27.15L29.92 27.15L29.92 26.64L31.16 25.65L31.16 21.84L29.92 21.10L29.92 20.59L32.41 19.40L32.87 21.10L34.29 19.64L34.29 19.64Q34.61 19.53 35.04 19.53L35.04 19.53L35.04 19.53Q35.56 19.53 35.95 19.80L35.95 19.80L35.95 19.80Q36.33 20.06 36.53 20.55L36.53 20.55L35.52 21.81L34.92 21.81L34.92 21.81Q34.86 21.43 34.72 21.27L34.72 21.27L34.72 21.27Q34.58 21.11 34.33 21.11L34.33 21.11ZM41.78 19.53L41.78 19.53Q42.73 19.53 43.48 20.01L43.48 20.01L43.48 20.01Q44.23 20.50 44.65 21.32L44.65 21.32L44.65 21.32Q45.07 22.15 45.07 23.16L45.07 23.16L45.07 23.16Q45.07 24.25 44.40 25.19L44.40 25.19L44.40 25.19Q43.74 26.14 42.73 26.71L42.73 26.71L42.73 26.71Q41.72 27.27 40.78 27.27L40.78 27.27L40.78 27.27Q39.84 27.27 39.09 26.79L39.09 26.79L39.09 26.79Q38.35 26.31 37.92 25.48L37.92 25.48L37.92 25.48Q37.49 24.65 37.49 23.65L37.49 23.65L37.49 23.65Q37.49 22.55 38.16 21.61L38.16 21.61L38.16 21.61Q38.82 20.66 39.83 20.10L39.83 20.10L39.83 20.10Q40.84 19.53 41.78 19.53L41.78 19.53ZM40.96 20.80L40.96 20.80Q39.45 20.80 39.45 22.97L39.45 22.97L39.45 22.97Q39.45 24.28 40.00 25.14L40.00 25.14L40.00 25.14Q40.56 26.01 41.59 26.01L41.59 26.01L41.59 26.01Q42.34 26.01 42.71 25.45L42.71 25.45L42.71 25.45Q43.09 24.89 43.09 23.81L43.09 23.81L43.09 23.81Q43.09 22.53 42.54 21.66L42.54 21.66L42.54 21.66Q41.99 20.80 40.96 20.80L40.96 20.80ZM58.25 19.68L58.25 20.19L55.10 27.15L53.90 27.15L52.49 23.69L50.74 27.15L49.53 27.15L47.36 21.87L46.05 21.10L46.05 20.59L48.58 19.42L49.11 21.53L50.79 25.59L52.12 22.78L51.74 21.85L50.43 21.08L50.43 20.58L52.96 19.40L53.49 21.52L55.13 25.48L56.77 21.71L54.80 20.30L55.10 19.67L58.25 19.68ZM63.90 25.56L63.90 25.56Q63.90 25.20 63.48 24.89L63.48 24.89L63.48 24.89Q63.06 24.57 62.19 24.11L62.19 24.11L62.19 24.11Q61.45 23.72 61.01 23.44L61.01 23.44L61.01 23.44Q60.56 23.16 60.25 22.79L60.25 22.79L60.25 22.79Q59.93 22.41 59.93 21.97L59.93 21.97L59.93 21.97Q59.93 21.46 60.37 20.89L60.37 20.89L60.37 20.89Q60.80 20.31 61.44 19.92L61.44 19.92L61.44 19.92Q62.08 19.53 62.61 19.53L62.61 19.53L62.61 19.53Q63.27 19.53 64.13 19.69L64.13 19.69L64.13 19.69Q65.00 19.85 65.39 20.05L65.39 20.05L65.39 22.25L64.79 22.25L64.79 22.25Q64.36 21.42 63.78 20.95L63.78 20.95L63.78 20.95Q63.21 20.48 62.59 20.48L62.59 20.48L62.59 20.48Q62.19 20.48 61.94 20.70L61.94 20.70L61.94 20.70Q61.70 20.92 61.70 21.24L61.70 21.24L61.70 21.24Q61.70 21.64 62.13 21.97L62.13 21.97L62.13 21.97Q62.57 22.29 63.48 22.78L63.48 22.78L63.48 22.78Q64.19 23.14 64.62 23.42L64.62 23.42L64.62 23.42Q65.06 23.69 65.37 24.05L65.37 24.05L65.37 24.05Q65.67 24.40 65.67 24.84L65.67 24.84L65.67 24.84Q65.67 25.35 65.22 25.92L65.22 25.92L65.22 25.92Q64.76 26.49 64.11 26.88L64.11 26.88L64.11 26.88Q63.46 27.27 62.92 27.27L62.92 27.27L62.92 27.27Q62.22 27.27 61.24 27.10L61.24 27.10L61.24 27.10Q60.27 26.94 59.86 26.75L59.86 26.75L59.86 24.54L60.47 24.54L60.47 24.54Q60.94 25.38 61.60 25.85L61.60 25.85L61.60 25.85Q62.26 26.32 62.93 26.32L62.93 26.32L62.93 26.32Q63.36 26.32 63.63 26.10L63.63 26.10L63.63 26.10Q63.90 25.87 63.90 25.56L63.90 25.56ZM71.64 26.50L71.32 27.13L67.31 27.13L67.31 26.63L68.56 25.63L68.56 21.71L67.31 20.86L67.31 20.36L69.78 19.40L70.38 19.40L70.38 26.04L71.64 26.50ZM69.41 15.20L69.41 15.20Q69.87 15.20 70.17 15.53L70.17 15.53L70.17 15.53Q70.46 15.86 70.46 16.34L70.46 16.34L70.46 16.34Q70.46 16.67 70.25 16.98L70.25 16.98L70.25 16.98Q70.04 17.28 69.72 17.45L69.72 17.45L69.72 17.45Q69.40 17.63 69.09 17.63L69.09 17.63L69.09 17.63Q68.64 17.63 68.35 17.30L68.35 17.30L68.35 17.30Q68.05 16.98 68.05 16.49L68.05 16.49L68.05 16.49Q68.05 16.16 68.26 15.86L68.26 15.86L68.26 15.86Q68.47 15.55 68.80 15.38L68.80 15.38L68.80 15.38Q69.12 15.20 69.41 15.20L69.41 15.20ZM81.90 26.52L81.58 27.15L78.82 27.15L78.82 22.47L78.82 22.47Q78.82 21.73 78.58 21.43L78.58 21.43L78.58 21.43Q78.34 21.13 77.76 21.13L77.76 21.13L77.76 21.13Q77.32 21.13 76.89 21.28L76.89 21.28L76.89 21.28Q76.45 21.43 75.88 21.87L75.88 21.87L75.88 26.05L77.14 26.52L76.82 27.15L72.81 27.15L72.81 26.64L74.06 25.65L74.06 21.84L72.81 21.10L72.81 20.59L75.31 19.40L75.80 21.18L77.73 19.64L77.73 19.64Q78.05 19.53 78.51 19.53L78.51 19.53L78.51 19.53Q79.49 19.53 80.07 20.11L80.07 20.11L80.07 20.11Q80.64 20.69 80.64 21.69L80.64 21.69L80.64 26.04L81.90 26.52ZM90.79 20.75L89.19 20.75L89.19 20.75Q89.57 21.31 89.57 21.94L89.57 21.94L89.57 21.94Q89.57 22.85 88.83 23.67L88.83 23.67L88.83 23.67Q88.09 24.49 87.02 24.84L87.02 24.84L87.02 24.84Q86.66 25.23 86.66 25.65L86.66 25.65L86.66 25.65Q86.66 25.87 87.00 26.06L87.00 26.06L87.00 26.06Q87.33 26.25 88.07 26.56L88.07 26.56L88.07 26.56Q89.05 26.95 89.60 27.29L89.60 27.29L89.60 27.29Q90.15 27.62 90.15 28.10L90.15 28.10L90.15 28.10Q90.15 28.53 89.60 29.19L89.60 29.19L89.60 29.19Q89.05 29.85 88.25 30.34L88.25 30.34L88.25 30.34Q87.44 30.83 86.70 30.83L86.70 30.83L86.70 30.83Q85.89 30.83 84.80 30.56L84.80 30.56L84.80 30.56Q83.72 30.30 82.99 30.03L82.99 30.03L82.99 27.80L83.59 27.80L83.59 27.80Q84.36 28.77 85.15 29.27L85.15 29.27L85.15 29.27Q85.93 29.76 86.93 29.76L86.93 29.76L86.93 29.76Q87.30 29.76 87.60 29.62L87.60 29.62L87.60 29.62Q87.91 29.48 88.07 29.27L88.07 29.27L88.07 29.27Q88.24 29.05 88.24 28.85L88.24 28.85L88.24 28.85Q88.24 28.49 87.81 28.22L87.81 28.22L87.81 28.22Q87.39 27.96 86.51 27.57L86.51 27.57L86.51 27.57Q85.65 27.20 85.22 26.93L85.22 26.93L85.22 26.93Q84.78 26.66 84.78 26.31L84.78 26.31L84.78 26.31Q84.78 25.97 85.24 25.62L85.24 25.62L85.24 25.62Q85.69 25.27 86.32 25.00L86.32 25.00L86.32 25.00Q86.02 25.03 85.86 25.03L85.86 25.03L85.86 25.03Q85.11 25.03 84.47 24.70L84.47 24.70L84.47 24.70Q83.83 24.37 83.46 23.82L83.46 23.82L83.46 23.82Q83.09 23.27 83.09 22.62L83.09 22.62L83.09 22.62Q83.09 21.85 83.64 21.13L83.64 21.13L83.64 21.13Q84.18 20.41 85.05 19.97L85.05 19.97L85.05 19.97Q85.92 19.53 86.81 19.53L86.81 19.53L86.81 19.53Q87.84 19.53 88.59 20.09L88.59 20.09L90.82 20.09L90.79 20.75ZM86.65 23.79L86.65 23.79Q87.23 23.79 87.55 23.49L87.55 23.49L87.55 23.49Q87.86 23.20 87.86 22.61L87.86 22.61L87.86 22.61Q87.86 21.80 87.35 21.31L87.35 21.31L87.35 21.31Q86.83 20.82 85.97 20.82L85.97 20.82L85.97 20.82Q84.77 20.82 84.77 21.95L84.77 21.95L84.77 21.95Q84.77 22.78 85.29 23.28L85.29 23.28L85.29 23.28Q85.81 23.79 86.65 23.79L86.65 23.79Z"></path></g><!----><!----></svg>